<svg width="48" height="42" viewBox="0 0 48 42" fill="none" xmlns="http://www.w3.org/2000/svg">
<path d="M42.93 5.78499H42.881C42.879 4.85499 42.876 3.60499 42.871 3.55599C42.728 1.94199 41.394 0.674988 39.77 0.674988H34.95C33.339 0.674988 32.013 1.92299 31.852 3.51899C31.846 3.57499 31.842 4.84499 31.839 5.78499H16.374C16.368 4.64999 16.36 3.44099 16.349 3.36799C16.2356 2.61912 15.8577 1.93567 15.2836 1.4416C14.7095 0.947522 13.9774 0.675544 13.22 0.674988H8.28C7.50686 0.675661 6.76067 0.959124 6.18209 1.47195C5.60351 1.98477 5.2325 2.69152 5.139 3.45899C5.132 3.51499 5.127 4.67899 5.123 5.78499H5.07C2.28 5.78499 0 8.06499 0 10.865V36.255C0 39.055 2.28 41.325 5.07 41.325H42.93C45.73 41.325 48 39.055 48 36.255V10.865C48 8.06499 45.73 5.78499 42.93 5.78499ZM15.478 24.559H11.904V28.132C11.904 28.3972 11.7986 28.6516 11.6111 28.8391C11.4236 29.0266 11.1692 29.132 10.904 29.132C10.6388 29.132 10.3844 29.0266 10.1969 28.8391C10.0094 28.6516 9.904 28.3972 9.904 28.132V24.56H6.331C6.06578 24.56 5.81143 24.4546 5.62389 24.2671C5.43636 24.0796 5.331 23.8252 5.331 23.56C5.331 23.2948 5.43636 23.0404 5.62389 22.8529C5.81143 22.6653 6.06578 22.56 6.331 22.56H9.904V18.986C9.904 18.7208 10.0094 18.4664 10.1969 18.2789C10.3844 18.0913 10.6388 17.986 10.904 17.986C11.1692 17.986 11.4236 18.0913 11.6111 18.2789C11.7986 18.4664 11.904 18.7208 11.904 18.986V22.56H15.478C15.7432 22.56 15.9976 22.6653 16.1851 22.8529C16.3726 23.0404 16.478 23.2948 16.478 23.56C16.478 23.8252 16.3726 24.0796 16.1851 24.2671C15.9976 24.4546 15.7432 24.559 15.478 24.559ZM41.672 24.559H32.525C32.2598 24.559 32.0054 24.4536 31.8179 24.2661C31.6304 24.0786 31.525 23.8242 31.525 23.559C31.525 23.2938 31.6304 23.0394 31.8179 22.8519C32.0054 22.6643 32.2598 22.559 32.525 22.559H41.672C41.9372 22.559 42.1916 22.6643 42.3791 22.8519C42.5666 23.0394 42.672 23.2938 42.672 23.559C42.672 23.8242 42.5666 24.0786 42.3791 24.2661C42.1916 24.4536 41.9372 24.559 41.672 24.559Z" fill="#1AA7EC"/>
</svg>
