<svg id="visual" viewBox="0 0 400 400" width="400" height="400" xmlns="http://www.w3.org/2000/svg" xmlns:xlink="http://www.w3.org/1999/xlink" version="1.1"><rect x="0" y="0" width="400" height="400" fill="#001220"></rect><defs><linearGradient id="grad1_0" x1="0%" y1="0%" x2="100%" y2="100%"><stop offset="30%" stop-color="#001220" stop-opacity="1"></stop><stop offset="70%" stop-color="#001220" stop-opacity="1"></stop></linearGradient></defs><defs><linearGradient id="grad2_0" x1="0%" y1="0%" x2="100%" y2="100%"><stop offset="30%" stop-color="#001220" stop-opacity="1"></stop><stop offset="70%" stop-color="#001220" stop-opacity="1"></stop></linearGradient></defs><g transform="translate(400, 0)"><path d="M0 254.6C-22.5 227.2 -45.1 199.8 -79.6 192.2C-114.1 184.6 -160.6 196.8 -180 180C-199.4 163.2 -191.7 117.5 -199.6 82.7C-207.5 47.8 -231 23.9 -254.6 0L0 0Z" fill="#1AA7EC"></path></g><g transform="translate(0, 400)"><path d="M0 -254.6C37.7 -255.2 75.4 -255.9 97.4 -235.2C119.4 -214.5 125.7 -172.3 147.8 -147.8C169.9 -123.2 207.8 -116.2 228.2 -94.5C248.6 -72.8 251.6 -36.4 254.6 0L0 0Z" fill="#1AA7EC"></path></g></svg>