<svg width="64" height="64" viewBox="0 0 64 64" fill="none" xmlns="http://www.w3.org/2000/svg">
<path d="M60 34H56C55.7348 34 55.4804 34.1054 55.2929 34.2929C55.1054 34.4804 55 34.7348 55 35V38H52V28C52 27.7348 51.8946 27.4804 51.7071 27.2929C51.5196 27.1054 51.2652 27 51 27H47.51L42.81 20.42C42.718 20.2908 42.5965 20.1853 42.4557 20.1122C42.3148 20.0392 42.1587 20.0007 42 20H35V17H38C38.2652 17 38.5196 16.8946 38.7071 16.7071C38.8946 16.5196 39 16.2652 39 16V12C39 11.7348 38.8946 11.4804 38.7071 11.2929C38.5196 11.1054 38.2652 11 38 11H26C25.7348 11 25.4804 11.1054 25.2929 11.2929C25.1054 11.4804 25 11.7348 25 12V16C25 16.2652 25.1054 16.5196 25.2929 16.7071C25.4804 16.8946 25.7348 17 26 17H29V20H24C23.8413 20.0007 23.6852 20.0392 23.5443 20.1122C23.4035 20.1853 23.282 20.2908 23.19 20.42L18.49 27H13C12.7348 27 12.4804 27.1054 12.2929 27.2929C12.1054 27.4804 12 27.7348 12 28V38H9V35C9 34.7348 8.89464 34.4804 8.70711 34.2929C8.51957 34.1054 8.26522 34 8 34H4C3.73478 34 3.48043 34.1054 3.29289 34.2929C3.10536 34.4804 3 34.7348 3 35V47C3 47.2652 3.10536 47.5196 3.29289 47.7071C3.48043 47.8946 3.73478 48 4 48H8C8.26522 48 8.51957 47.8946 8.70711 47.7071C8.89464 47.5196 9 47.2652 9 47V44H12V49C12 49.2652 12.1054 49.5196 12.2929 49.7071C12.4804 49.8946 12.7348 50 13 50H24.59L27.29 52.71C27.3834 52.8027 27.4943 52.876 27.6161 52.9258C27.7379 52.9755 27.8684 53.0008 28 53H48C48.1316 53.0008 48.2621 52.9755 48.3839 52.9258C48.5057 52.876 48.6166 52.8027 48.71 52.71L51.71 49.71C51.8027 49.6166 51.876 49.5057 51.9258 49.3839C51.9755 49.2621 52.0008 49.1316 52 49V44H55V47C55 47.2652 55.1054 47.5196 55.2929 47.7071C55.4804 47.8946 55.7348 48 56 48H60C60.2652 48 60.5196 47.8946 60.7071 47.7071C60.8946 47.5196 61 47.2652 61 47V35C61 34.7348 60.8946 34.4804 60.7071 34.2929C60.5196 34.1054 60.2652 34 60 34ZM35.77 37.64L30.77 43.64C30.676 43.7529 30.5582 43.8437 30.4252 43.9059C30.2921 43.9681 30.1469 44.0002 30 44C29.7663 44.0005 29.5399 43.9191 29.36 43.77C29.2587 43.6861 29.175 43.5829 29.1137 43.4666C29.0523 43.3503 29.0145 43.2229 29.0025 43.092C28.9904 42.961 29.0043 42.8289 29.0433 42.7033C29.0824 42.5777 29.1458 42.461 29.23 42.36L32.87 38H29C28.8098 38.0003 28.6235 37.9464 28.4629 37.8445C28.3023 37.7427 28.174 37.5972 28.0932 37.425C28.0124 37.2528 27.9823 37.0612 28.0065 36.8726C28.0308 36.6839 28.1083 36.5061 28.23 36.36L33.23 30.36C33.314 30.2589 33.4172 30.1753 33.5335 30.114C33.6499 30.0528 33.7771 30.0151 33.9081 30.003C34.039 29.9909 34.171 30.0047 34.2966 30.0437C34.4222 30.0826 34.5389 30.146 34.64 30.23C34.7411 30.314 34.8247 30.4172 34.8859 30.5335C34.9472 30.6499 34.9849 30.7771 34.997 30.9081C35.0091 31.039 34.9953 31.171 34.9563 31.2966C34.9174 31.4222 34.854 31.5389 34.77 31.64L31.13 36H35C35.1902 35.9997 35.3765 36.0536 35.5371 36.1555C35.6977 36.2573 35.826 36.4028 35.9068 36.575C35.9876 36.7472 36.0177 36.9388 35.9935 37.1274C35.9692 37.3161 35.8917 37.4939 35.77 37.64Z" fill="#1AA7EC"/>
</svg>
