<svg id="visual" viewBox="0 0 1440 600" width="1440" height="600" xmlns="http://www.w3.org/2000/svg" xmlns:xlink="http://www.w3.org/1999/xlink" version="1.1"><path d="M569 600L608.3 575C647.7 550 726.3 500 737.3 450C748.3 400 691.7 350 708.5 300C725.3 250 815.7 200 827.2 150C838.7 100 771.3 50 737.7 25L704 0L1440 0L1440 25C1440 50 1440 100 1440 150C1440 200 1440 250 1440 300C1440 350 1440 400 1440 450C1440 500 1440 550 1440 575L1440 600Z" fill="#1aa7ec"></path><path d="M855 600L838.2 575C821.3 550 787.7 500 796.8 450C806 400 858 350 923.5 300C989 250 1068 200 1052.7 150C1037.3 100 927.7 50 872.8 25L818 0L1440 0L1440 25C1440 50 1440 100 1440 150C1440 200 1440 250 1440 300C1440 350 1440 400 1440 450C1440 500 1440 550 1440 575L1440 600Z" fill="#1597d7"></path><path d="M1118 600L1106.5 575C1095 550 1072 500 1101.8 450C1131.7 400 1214.3 350 1210.7 300C1207 250 1117 200 1085.3 150C1053.7 100 1080.3 50 1093.7 25L1107 0L1440 0L1440 25C1440 50 1440 100 1440 150C1440 200 1440 250 1440 300C1440 350 1440 400 1440 450C1440 500 1440 550 1440 575L1440 600Z" fill="#1087c3"></path></svg>