<svg id="visual" viewBox="0 0 400 400" width="400" height="400" xmlns="http://www.w3.org/2000/svg" xmlns:xlink="http://www.w3.org/1999/xlink" version="1.1"><rect x="0" y="0" width="400" height="400" fill="#001220"></rect><g transform="translate(187.87952679658173 202.20534174340509)"><path d="M100.1 -120.6C127.3 -96.4 145.4 -62.6 156.1 -24.3C166.7 14.1 170 57.1 151.9 87.1C133.8 117.1 94.4 134.2 55.3 145.7C16.2 157.2 -22.7 163.2 -53.5 150.5C-84.3 137.8 -107.1 106.4 -121.5 73.8C-135.8 41.3 -141.8 7.6 -140.3 -28.9C-138.8 -65.4 -129.8 -104.7 -105.2 -129.4C-80.6 -154 -40.3 -164 -1.9 -161.7C36.4 -159.4 72.8 -144.8 100.1 -120.6" fill="#1AA7EC"></path></g></svg>