<svg width="64" height="64" viewBox="0 0 64 64" fill="none" xmlns="http://www.w3.org/2000/svg">
<path d="M15.35 52.65C14.4246 52.6493 13.5281 52.3277 12.8132 51.7401C12.0983 51.1525 11.6093 50.3352 11.4294 49.4275C11.2496 48.5198 11.39 47.5778 11.8268 46.7619C12.2636 45.9461 12.9697 45.307 13.8249 44.9535C14.6801 44.5999 15.6314 44.5538 16.5167 44.823C17.4021 45.0922 18.1667 45.66 18.6804 46.4298C19.194 47.1995 19.4249 48.1235 19.3337 49.0444C19.2424 49.9653 18.8347 50.826 18.18 51.48C17.8083 51.8513 17.367 52.1458 16.8814 52.3465C16.3958 52.5473 15.8754 52.6504 15.35 52.65ZM15.35 46.65C14.8872 46.6481 14.438 46.8067 14.0791 47.0988C13.7201 47.391 13.4736 47.7986 13.3815 48.2521C13.2895 48.7057 13.3576 49.1772 13.5742 49.5861C13.7908 49.9951 14.1426 50.3163 14.5696 50.495C14.9965 50.6736 15.4722 50.6987 15.9155 50.5659C16.3589 50.433 16.7424 50.1506 17.0008 49.7666C17.2592 49.3826 17.3765 48.9209 17.3325 48.4602C17.2886 47.9995 17.0863 47.5682 16.76 47.24C16.3867 46.8644 15.8796 46.6522 15.35 46.65Z" fill="#1AA7EC"/>
<path d="M15.35 56.65C14.1812 56.6575 13.025 56.4088 11.9627 55.9214C10.9004 55.434 9.9578 54.7198 9.20119 53.8289C8.44459 52.9381 7.89237 51.8923 7.58339 50.7651C7.27441 49.6379 7.21616 48.4566 7.41276 47.3045C7.60936 46.1524 8.05602 45.0573 8.72132 44.0964C9.38662 43.1354 10.2544 42.3319 11.2636 41.7424C12.2728 41.1529 13.399 40.7916 14.5628 40.6841C15.7266 40.5766 16.8999 40.7254 18 41.12C18.1243 41.1637 18.2388 41.2315 18.3368 41.3196C18.4348 41.4077 18.5144 41.5142 18.5711 41.6332C18.6278 41.7521 18.6604 41.8811 18.6671 42.0127C18.6737 42.1443 18.6544 42.2759 18.61 42.4C18.5197 42.6492 18.3342 42.8524 18.0942 42.9649C17.8542 43.0775 17.5793 43.0901 17.33 43C16.2628 42.6105 15.106 42.5364 13.9978 42.7864C12.8895 43.0364 11.8767 43.6 11.08 44.41C9.9564 45.535 9.32528 47.06 9.32528 48.65C9.32528 50.24 9.9564 51.765 11.08 52.89C12.0399 53.8665 13.305 54.4853 14.6651 54.6436C16.0253 54.802 17.3987 54.4903 18.5572 53.7603C19.7158 53.0304 20.5898 51.9261 21.0342 50.6309C21.4785 49.3357 21.4665 47.9274 21 46.64C20.939 46.5126 20.9056 46.3736 20.9022 46.2324C20.8987 46.0911 20.9253 45.9507 20.98 45.8204C21.0348 45.6902 21.1165 45.573 21.2199 45.4766C21.3232 45.3803 21.4458 45.3069 21.5796 45.2613C21.7134 45.2158 21.8553 45.1991 21.996 45.2124C22.1366 45.2257 22.2729 45.2687 22.3958 45.3385C22.5186 45.4083 22.6253 45.5033 22.7088 45.6173C22.7923 45.7314 22.8506 45.8618 22.88 46C23.3089 47.2064 23.442 48.4981 23.2681 49.7667C23.0942 51.0352 22.6183 52.2434 21.8805 53.2899C21.1427 54.3363 20.1646 55.1904 19.0282 55.7803C17.8918 56.3702 16.6304 56.6788 15.35 56.68V56.65ZM35.85 19.25C35.5862 19.2462 35.3346 19.1384 35.15 18.95C34.9638 18.7626 34.8592 18.5092 34.8592 18.245C34.8592 17.9808 34.9638 17.7274 35.15 17.54L38 14.71C38.0896 14.6053 38.2 14.5203 38.324 14.4603C38.4481 14.4003 38.5832 14.3665 38.7209 14.3612C38.8587 14.3559 38.996 14.3791 39.1243 14.4294C39.2527 14.4796 39.3692 14.5559 39.4667 14.6534C39.5641 14.7508 39.6404 14.8674 39.6906 14.9957C39.7409 15.124 39.7641 15.2613 39.7588 15.3991C39.7535 15.5368 39.7198 15.6719 39.6597 15.796C39.5997 15.92 39.5147 16.0304 39.41 16.12L36.56 19C36.3649 19.1726 36.1102 19.2623 35.85 19.25ZM24.54 30.56C24.4084 30.5608 24.2779 30.5355 24.1561 30.4858C24.0343 30.436 23.9234 30.3627 23.83 30.27C23.7363 30.177 23.6619 30.0664 23.6111 29.9446C23.5603 29.8227 23.5342 29.692 23.5342 29.56C23.5342 29.428 23.5603 29.2973 23.6111 29.1754C23.6619 29.0536 23.7363 28.943 23.83 28.85L26.66 26C26.8483 25.8117 27.1037 25.7059 27.37 25.7059C27.6363 25.7059 27.8917 25.8117 28.08 26C28.2683 26.1883 28.3741 26.4437 28.3741 26.71C28.3741 26.9763 28.2683 27.2317 28.08 27.42L25.25 30.25C25.1582 30.3463 25.0482 30.4233 24.9262 30.4766C24.8043 30.5298 24.673 30.5582 24.54 30.56ZM21.71 39C21.4477 38.9989 21.1963 38.8947 21.01 38.71L18.18 35.88C17.9916 35.6954 17.8838 35.4438 17.88 35.18C17.8806 35.0477 17.9074 34.9168 17.9588 34.7949C18.0103 34.6731 18.0855 34.5626 18.18 34.47L21 31.68C21.1874 31.4938 21.4408 31.3892 21.705 31.3892C21.9692 31.3892 22.2226 31.4938 22.41 31.68C22.5037 31.773 22.5781 31.8836 22.6289 32.0054C22.6797 32.1273 22.7058 32.258 22.7058 32.39C22.7058 32.522 22.6797 32.6527 22.6289 32.7746C22.5781 32.8964 22.5037 33.007 22.41 33.1L20.3 35.22L22.42 37.34C22.6063 37.5274 22.7108 37.7808 22.7108 38.045C22.7108 38.3092 22.6063 38.5626 22.42 38.75C22.2249 38.9226 21.9702 39.0123 21.71 39ZM30.2 24.9C30.0684 24.9008 29.9379 24.8755 29.8161 24.8258C29.6943 24.776 29.5834 24.7027 29.49 24.61C29.3038 24.4226 29.1992 24.1692 29.1992 23.905C29.1992 23.6408 29.3038 23.3874 29.49 23.2L32.32 20.37C32.5113 20.2062 32.7574 20.1206 33.0091 20.1303C33.2607 20.14 33.4995 20.2443 33.6776 20.4224C33.8557 20.6005 33.96 20.8393 33.9697 21.0909C33.9794 21.3426 33.8938 21.5887 33.73 21.78L30.91 24.61C30.8166 24.7027 30.7057 24.776 30.5839 24.8258C30.4621 24.8755 30.3316 24.9008 30.2 24.9ZM45.75 29.15C45.4862 29.1462 45.2346 29.0384 45.05 28.85C44.8638 28.6626 44.7592 28.4092 44.7592 28.145C44.7592 27.8808 44.8638 27.6274 45.05 27.44L47.88 24.61C47.9652 24.4948 48.0741 24.3992 48.1994 24.3298C48.3247 24.2603 48.4634 24.2186 48.6062 24.2075C48.7491 24.1963 48.8926 24.2159 49.0272 24.2651C49.1617 24.3142 49.2842 24.3917 49.3862 24.4923C49.4882 24.5928 49.5674 24.7142 49.6185 24.848C49.6696 24.9819 49.6913 25.1251 49.6821 25.2681C49.673 25.4111 49.6333 25.5504 49.5656 25.6767C49.498 25.8029 49.404 25.9132 49.29 26L46.46 28.83C46.3691 28.9281 46.2594 29.007 46.1374 29.062C46.0155 29.1169 45.8837 29.1469 45.75 29.15ZM34.44 40.46C34.3084 40.4608 34.1779 40.4355 34.0561 40.3858C33.9343 40.336 33.8234 40.2627 33.73 40.17C33.6363 40.077 33.5619 39.9664 33.5111 39.8446C33.4603 39.7227 33.4342 39.592 33.4342 39.46C33.4342 39.328 33.4603 39.1973 33.5111 39.0754C33.5619 38.9536 33.6363 38.843 33.73 38.75L36.56 35.92C36.7483 35.729 37.0048 35.6207 37.2729 35.6188C37.5411 35.617 37.799 35.7217 37.99 35.91C38.181 36.0983 38.2893 36.3548 38.2912 36.6229C38.293 36.8911 38.1883 37.149 38 37.34L35.17 40.17C35.0742 40.2651 34.9601 40.3398 34.8347 40.3897C34.7092 40.4395 34.575 40.4634 34.44 40.46ZM28.78 46.12C28.5162 46.1162 28.2646 46.0084 28.08 45.82L25.25 43C25.1453 42.9104 25.0603 42.8 25.0003 42.676C24.9403 42.5519 24.9065 42.4168 24.9012 42.2791C24.8959 42.1413 24.9191 42.004 24.9694 41.8757C25.0196 41.7474 25.0959 41.6308 25.1934 41.5333C25.2908 41.4359 25.4074 41.3596 25.5357 41.3094C25.664 41.2591 25.8013 41.2359 25.9391 41.2412C26.0768 41.2465 26.2119 41.2803 26.336 41.3403C26.46 41.4003 26.5704 41.4853 26.66 41.59L28.78 43.71L30.91 41.59C30.9996 41.4853 31.11 41.4003 31.234 41.3403C31.3581 41.2803 31.4932 41.2465 31.6309 41.2412C31.7687 41.2359 31.906 41.2591 32.0343 41.3094C32.1627 41.3596 32.2792 41.4359 32.3767 41.5333C32.4741 41.6308 32.5504 41.7474 32.6006 41.8757C32.6509 42.004 32.6741 42.1413 32.6688 42.2791C32.6635 42.4168 32.6298 42.5519 32.5697 42.676C32.5097 42.8 32.4247 42.9104 32.32 43L29.49 45.83C29.3966 45.9227 29.2857 45.996 29.1639 46.0458C29.0421 46.0955 28.9116 46.1208 28.78 46.12ZM40.1 34.8C39.9684 34.8008 39.8379 34.7755 39.7161 34.7258C39.5943 34.676 39.4834 34.6027 39.39 34.51C39.2038 34.3226 39.0992 34.0692 39.0992 33.805C39.0992 33.5408 39.2038 33.2874 39.39 33.1L42.22 30.27C42.4113 30.1062 42.6574 30.0206 42.9091 30.0303C43.1607 30.04 43.3995 30.1443 43.5776 30.3224C43.7557 30.5005 43.86 30.7393 43.8697 30.9909C43.8794 31.2426 43.7938 31.4887 43.63 31.68L40.8 34.51C40.6137 34.6947 40.3623 34.7989 40.1 34.8ZM51.41 23.49C51.2784 23.4908 51.1479 23.4655 51.0261 23.4158C50.9043 23.366 50.7934 23.2927 50.7 23.2C50.6063 23.107 50.5319 22.9964 50.4811 22.8746C50.4303 22.7527 50.4042 22.622 50.4042 22.49C50.4042 22.358 50.4303 22.2273 50.4811 22.1054C50.5319 21.9836 50.6063 21.873 50.7 21.78L54.24 18.25L45.75 9.76L42.22 13.3C42.0317 13.4883 41.7763 13.5941 41.51 13.5941C41.2437 13.5941 40.9883 13.4883 40.8 13.3C40.6117 13.1117 40.5059 12.8563 40.5059 12.59C40.5059 12.3237 40.6117 12.0683 40.8 11.88L45.05 7.64C45.2374 7.45375 45.4908 7.34921 45.755 7.34921C46.0192 7.34921 46.2726 7.45375 46.46 7.64L56.36 17.54C56.5463 17.7274 56.6508 17.9808 56.6508 18.245C56.6508 18.5092 56.5463 18.7626 56.36 18.95L52.12 23.2C52.0266 23.2927 51.9157 23.366 51.7939 23.4158C51.6721 23.4655 51.5416 23.4908 51.41 23.49Z" fill="#1AA7EC"/>
<path d="M17.7 43.06C17.5022 43.0592 17.3091 42.9997 17.1452 42.8892C16.9812 42.7786 16.8537 42.6219 16.7787 42.4389C16.7038 42.2558 16.6848 42.0547 16.7242 41.8609C16.7636 41.6671 16.8596 41.4893 17 41.35L21 37.35C21.0896 37.2453 21.2 37.1603 21.324 37.1003C21.4481 37.0402 21.5832 37.0065 21.7209 37.0012C21.8587 36.9959 21.996 37.0191 22.1243 37.0694C22.2526 37.1196 22.3692 37.1959 22.4667 37.2934C22.5641 37.3908 22.6404 37.5074 22.6906 37.6357C22.7409 37.764 22.7641 37.9013 22.7588 38.0391C22.7535 38.1768 22.7197 38.3119 22.6597 38.436C22.5997 38.56 22.5147 38.6704 22.41 38.76L18.41 42.76C18.3174 42.8545 18.2069 42.9297 18.0851 42.9812C17.9632 43.0327 17.8323 43.0595 17.7 43.06ZM21.94 47.3C21.8084 47.3008 21.6779 47.2755 21.5561 47.2258C21.4343 47.176 21.3234 47.1027 21.23 47.01C21.0437 46.8226 20.9392 46.5692 20.9392 46.305C20.9392 46.0408 21.0437 45.7874 21.23 45.6L25.23 41.6C25.3219 41.5061 25.4314 41.4312 25.5523 41.3797C25.6732 41.3281 25.803 41.3008 25.9344 41.2994C26.0658 41.298 26.1962 41.3226 26.3181 41.3715C26.44 41.4205 26.5511 41.4931 26.645 41.585C26.7389 41.6769 26.8138 41.7864 26.8653 41.9073C26.9169 42.0282 26.9442 42.158 26.9456 42.2894C26.947 42.4208 26.9224 42.5512 26.8735 42.6731C26.8245 42.795 26.7519 42.9061 26.66 43L22.66 47C22.5662 47.0957 22.4541 47.1716 22.3305 47.2231C22.2068 47.2746 22.074 47.3008 21.94 47.3ZM34.44 45.29C33.6446 45.2893 32.8821 44.9728 32.32 44.41L19.59 31.68C19.0601 31.1113 18.7716 30.3591 18.7853 29.5819C18.799 28.8047 19.1139 28.0632 19.6635 27.5135C20.2132 26.9639 20.9547 26.649 21.7319 26.6353C22.5091 26.6216 23.2613 26.9101 23.83 27.44L36.56 40.17C37.1218 40.7325 37.4374 41.495 37.4374 42.29C37.4374 43.085 37.1218 43.8475 36.56 44.41C35.9979 44.9728 35.2354 45.2893 34.44 45.29ZM21.71 28.56C21.5784 28.5592 21.4479 28.5845 21.3261 28.6342C21.2043 28.684 21.0934 28.7573 21 28.85C20.9063 28.943 20.8319 29.0536 20.7811 29.1754C20.7303 29.2973 20.7042 29.428 20.7042 29.56C20.7042 29.692 20.7303 29.8227 20.7811 29.9446C20.8319 30.0664 20.9063 30.177 21 30.27L33.73 43C33.823 43.0937 33.9336 43.1681 34.0554 43.2189C34.1773 43.2697 34.308 43.2958 34.44 43.2958C34.572 43.2958 34.7027 43.2697 34.8246 43.2189C34.9464 43.1681 35.057 43.0937 35.15 43C35.3347 42.8137 35.4389 42.5623 35.44 42.3C35.4408 42.1684 35.4155 42.0379 35.3658 41.9161C35.316 41.7943 35.2427 41.6834 35.15 41.59L22.42 28.85C22.3266 28.7573 22.2157 28.684 22.0939 28.6342C21.9721 28.5845 21.8416 28.5592 21.71 28.56ZM40.1 39.63C39.3116 39.624 38.5572 39.3079 38 38.75L25.25 26C24.6882 25.4375 24.3726 24.675 24.3726 23.88C24.3726 23.085 24.6882 22.3225 25.25 21.76C25.8223 21.217 26.5811 20.9143 27.37 20.9143C28.1589 20.9143 28.9177 21.217 29.49 21.76L42.22 34.51C42.639 34.9295 42.9243 35.4639 43.0399 36.0455C43.1554 36.6271 43.096 37.2298 42.8691 37.7777C42.6423 38.3255 42.2582 38.7939 41.7653 39.1236C41.2725 39.4532 40.693 39.6295 40.1 39.63ZM39.39 37.34C39.5774 37.5263 39.8308 37.6308 40.095 37.6308C40.3592 37.6308 40.6126 37.5263 40.8 37.34C40.8937 37.247 40.9681 37.1364 41.0189 37.0146C41.0697 36.8927 41.0958 36.762 41.0958 36.63C41.0958 36.498 41.0697 36.3673 41.0189 36.2454C40.9681 36.1236 40.8937 36.013 40.8 35.92L28.08 23.2C27.987 23.1063 27.8764 23.0319 27.7546 22.9811C27.6327 22.9303 27.502 22.9042 27.37 22.9042C27.238 22.9042 27.1073 22.9303 26.9854 22.9811C26.8636 23.0319 26.753 23.1063 26.66 23.2C26.4753 23.3863 26.3711 23.6377 26.37 23.9C26.3692 24.0316 26.3945 24.1621 26.4442 24.2839C26.494 24.4057 26.5673 24.5166 26.66 24.61L39.39 37.34ZM45.75 34C44.9561 34.002 44.1937 33.6891 43.63 33.13L30.91 20.37C30.6303 20.0913 30.4084 19.7601 30.257 19.3955C30.1056 19.0308 30.0276 18.6398 30.0276 18.245C30.0276 17.8502 30.1056 17.4592 30.257 17.0945C30.4084 16.7299 30.6303 16.3987 30.91 16.12C31.4823 15.577 32.2411 15.2743 33.03 15.2743C33.8189 15.2743 34.5777 15.577 35.15 16.12L47.88 28.85C48.3101 29.2685 48.6048 29.8063 48.7261 30.394C48.8474 30.9817 48.7896 31.5923 48.5602 32.1468C48.3309 32.7014 47.9405 33.1744 47.4395 33.5047C46.9386 33.8351 46.35 34.0076 45.75 34ZM45.05 31.71C45.2374 31.8963 45.4908 32.0008 45.755 32.0008C46.0192 32.0008 46.2726 31.8963 46.46 31.71C46.6463 31.5226 46.7508 31.2692 46.7508 31.005C46.7508 30.7408 46.6463 30.4874 46.46 30.3L33.73 17.54C33.5426 17.3538 33.2892 17.2492 33.025 17.2492C32.7608 17.2492 32.5074 17.3538 32.32 17.54C32.1337 17.7274 32.0292 17.9808 32.0292 18.245C32.0292 18.5092 32.1337 18.7626 32.32 18.95L45.05 31.68V31.71ZM51.41 28.32C50.6146 28.3193 49.8521 28.0028 49.29 27.44L36.56 14.71C36.2653 14.4354 36.0288 14.1042 35.8649 13.7362C35.7009 13.3682 35.6127 12.9709 35.6056 12.5681C35.5985 12.1653 35.6726 11.7652 35.8235 11.3916C35.9744 11.0181 36.199 10.6787 36.4838 10.3938C36.7687 10.109 37.1081 9.88439 37.4816 9.73351C37.8552 9.58263 38.2553 9.50853 38.6581 9.51563C39.0609 9.52274 39.4582 9.61091 39.8262 9.77488C40.1942 9.93884 40.5254 10.1753 40.8 10.47L53.53 23.2C54.0918 23.7625 54.4074 24.525 54.4074 25.32C54.4074 26.115 54.0918 26.8775 53.53 27.44C52.9679 28.0028 52.2054 28.3193 51.41 28.32ZM38.68 11.59C38.4839 11.5947 38.2936 11.6569 38.1326 11.769C37.9716 11.881 37.8472 12.038 37.7747 12.2202C37.7022 12.4024 37.6849 12.602 37.725 12.794C37.7651 12.986 37.8607 13.1619 38 13.3L50.7 26C50.8874 26.1863 51.1408 26.2908 51.405 26.2908C51.6692 26.2908 51.9226 26.1863 52.11 26C52.2963 25.8126 52.4008 25.5592 52.4008 25.295C52.4008 25.0308 52.2963 24.7774 52.11 24.59L39.39 11.88C39.2966 11.7873 39.1857 11.714 39.0639 11.6642C38.9421 11.6145 38.8116 11.5892 38.68 11.59Z" fill="#1AA7EC"/>
</svg>
