<svg id="visual" viewBox="0 0 900 600" width="900" height="600" xmlns="http://www.w3.org/2000/svg" xmlns:xlink="http://www.w3.org/1999/xlink" version="1.1"><rect x="0" y="0" width="900" height="600" fill="#002233"></rect><path d="M617 0L588.5 14.3C560 28.7 503 57.3 493 85.8C483 114.3 520 142.7 495.5 171.2C471 199.7 385 228.3 394 257C403 285.7 507 314.3 561.8 343C616.7 371.7 622.3 400.3 570.8 428.8C519.3 457.3 410.7 485.7 399.5 514.2C388.3 542.7 474.7 571.3 517.8 585.7L561 600L0 600L0 585.7C0 571.3 0 542.7 0 514.2C0 485.7 0 457.3 0 428.8C0 400.3 0 371.7 0 343C0 314.3 0 285.7 0 257C0 228.3 0 199.7 0 171.2C0 142.7 0 114.3 0 85.8C0 57.3 0 28.7 0 14.3L0 0Z" fill="#1aa7ec" stroke-linecap="round" stroke-linejoin="miter"></path></svg>