<svg id="visual" viewBox="0 0 1100 600" width="1100" height="600" xmlns="http://www.w3.org/2000/svg" xmlns:xlink="http://www.w3.org/1999/xlink" version="1.1"><rect x="0" y="0" width="1100" height="600" fill="#002233"></rect><path d="M754 0L719 14.3C684 28.7 614 57.3 601.7 85.8C589.3 114.3 634.7 142.7 605 171.2C575.3 199.7 470.7 228.3 481.8 257C493 285.7 620 314.3 687 343C754 371.7 761 400.3 698 428.8C635 457.3 502 485.7 488.2 514.2C474.3 542.7 579.7 571.3 632.3 585.7L685 600L0 600L0 585.7C0 571.3 0 542.7 0 514.2C0 485.7 0 457.3 0 428.8C0 400.3 0 371.7 0 343C0 314.3 0 285.7 0 257C0 228.3 0 199.7 0 171.2C0 142.7 0 114.3 0 85.8C0 57.3 0 28.7 0 14.3L0 0Z" fill="#1aa7ec" stroke-linecap="round" stroke-linejoin="miter"></path></svg>