<svg width="32" height="32" viewBox="0 0 32 32" fill="none" xmlns="http://www.w3.org/2000/svg">
<path d="M26 17C25.7348 17 25.4804 16.8946 25.2929 16.7071C25.1054 16.5196 25 16.2652 25 16C25.0039 15.0842 24.8655 14.1734 24.59 13.3C24.1555 11.9163 23.393 10.6581 22.3674 9.63258C21.3419 8.60704 20.0837 7.84454 18.7 7.41C18.4467 7.33043 18.2354 7.15351 18.1126 6.91815C17.9897 6.6828 17.9654 6.40828 18.045 6.155C18.1246 5.90172 18.3015 5.69042 18.5368 5.56758C18.7722 5.44474 19.0467 5.42044 19.3 5.5C20.9886 6.03147 22.5239 6.96262 23.7756 8.21436C25.0274 9.4661 25.9585 11.0014 26.49 12.69C26.8301 13.7603 27.0022 14.8769 27 16C27 16.2652 26.8946 16.5196 26.7071 16.7071C26.5196 16.8946 26.2652 17 26 17ZM13 26.54C12.9006 26.5551 12.7994 26.5551 12.7 26.54C11.0059 26.0037 9.4669 25.065 8.21475 23.8041C6.9626 22.5432 6.03454 20.9978 5.51 19.3C5.17089 18.2329 4.99886 17.1197 5 16C5 15.7348 5.10536 15.4804 5.29289 15.2929C5.48043 15.1054 5.73478 15 6 15C6.26522 15 6.51957 15.1054 6.70711 15.2929C6.89464 15.4804 7 15.7348 7 16C6.99615 16.9158 7.13446 17.8266 7.41 18.7C7.84454 20.0837 8.60704 21.3419 9.63258 22.3674C10.6581 23.393 11.9163 24.1555 13.3 24.59C13.5652 24.6298 13.8038 24.7733 13.9632 24.989C14.1226 25.2046 14.1898 25.4748 14.15 25.74C14.1102 26.0052 13.9667 26.2438 13.751 26.4032C13.5354 26.5626 13.2652 26.6298 13 26.59V26.54ZM6.46 14C6.36057 14.0151 6.25943 14.0151 6.16 14C5.90863 13.9196 5.69925 13.7431 5.57749 13.5089C5.45573 13.2748 5.43147 13.002 5.51 12.75C6.20328 10.5083 7.59524 8.54697 9.48253 7.15264C11.3698 5.75832 13.6535 5.00404 16 5C16.2652 5 16.5196 5.10536 16.7071 5.29289C16.8946 5.48043 17 5.73478 17 6C17 6.26522 16.8946 6.51957 16.7071 6.70711C16.5196 6.89464 16.2652 7 16 7C15.0843 6.99743 14.1737 7.13571 13.3 7.41C11.9163 7.84454 10.6581 8.60704 9.63258 9.63258C8.60704 10.6581 7.84454 11.9163 7.41 13.3C7.34636 13.5024 7.22003 13.6792 7.04926 13.8051C6.87849 13.9309 6.67212 13.9992 6.46 14ZM16 27C15.7348 27 15.4804 26.8946 15.2929 26.7071C15.1054 26.5196 15 26.2652 15 26C15 25.7348 15.1054 25.4804 15.2929 25.2929C15.4804 25.1054 15.7348 25 16 25C16.9157 25.0026 17.8263 24.8643 18.7 24.59C20.0837 24.1555 21.3419 23.393 22.3674 22.3674C23.393 21.3419 24.1555 20.0837 24.59 18.7C24.6294 18.5746 24.6931 18.4582 24.7775 18.3574C24.8619 18.2566 24.9653 18.1734 25.0818 18.1126C25.1984 18.0518 25.3258 18.0145 25.4567 18.0029C25.5876 17.9913 25.7196 18.0056 25.845 18.045C25.9704 18.0844 26.0868 18.1481 26.1876 18.2325C26.2884 18.3169 26.3716 18.4203 26.4324 18.5368C26.4932 18.6534 26.5305 18.7808 26.5421 18.9117C26.5537 19.0426 26.5394 19.1746 26.5 19.3C25.7974 21.534 24.4002 23.4855 22.5117 24.8705C20.6231 26.2554 18.3419 27.0014 16 27Z" fill="#1AA7EC"/>
<path d="M3 21C2.81429 21 2.63225 20.9483 2.47427 20.8507C2.31629 20.753 2.18863 20.6133 2.10557 20.4472C2.02252 20.2811 1.98736 20.0952 2.00404 19.9102C2.02072 19.7252 2.08857 19.5486 2.2 19.4L5.2 15.4C5.35913 15.1878 5.59603 15.0476 5.85858 15.0101C6.12113 14.9725 6.38783 15.0409 6.6 15.2C6.81217 15.3591 6.95244 15.596 6.98995 15.8586C7.02746 16.1211 6.95913 16.3878 6.8 16.6L3.8 20.6C3.70685 20.7242 3.58607 20.825 3.44721 20.8944C3.30836 20.9639 3.15525 21 3 21ZM26 17C25.8143 17 25.6322 16.9483 25.4743 16.8507C25.3163 16.753 25.1886 16.6133 25.1056 16.4472C25.0225 16.2811 24.9874 16.0952 25.004 15.9102C25.0207 15.7252 25.0886 15.5486 25.2 15.4L28.2 11.4C28.2788 11.2949 28.3775 11.2064 28.4905 11.1395C28.6035 11.0726 28.7286 11.0286 28.8586 11.0101C28.9886 10.9915 29.121 10.9987 29.2482 11.0313C29.3754 11.0639 29.4949 11.1212 29.6 11.2C29.7051 11.2788 29.7936 11.3775 29.8605 11.4905C29.9274 11.6035 29.9714 11.7286 29.99 11.8586C30.0085 11.9886 30.0013 12.121 29.9687 12.2482C29.9361 12.3754 29.8788 12.4949 29.8 12.6L26.8 16.6C26.7069 16.7242 26.5861 16.825 26.4472 16.8944C26.3084 16.9639 26.1552 17 26 17ZM20 30C19.7836 30 19.5731 29.9298 19.4 29.8L15.4 26.8C15.2949 26.7212 15.2064 26.6225 15.1395 26.5095C15.0726 26.3965 15.0286 26.2714 15.0101 26.1414C14.9725 25.8789 15.0409 25.6122 15.2 25.4C15.3591 25.1878 15.596 25.0476 15.8586 25.01C16.1211 24.9725 16.3878 25.0409 16.6 25.2L20.6 28.2C20.7679 28.3259 20.8919 28.5015 20.9545 28.7018C21.0171 28.9022 21.0151 29.1171 20.9487 29.3162C20.8823 29.5153 20.755 29.6885 20.5847 29.8112C20.4144 29.934 20.2099 30 20 30ZM16 7C15.7836 7 15.5731 6.92982 15.4 6.8L11.4 3.8C11.2949 3.72121 11.2064 3.62249 11.1395 3.50949C11.0726 3.39649 11.0286 3.27142 11.0101 3.14142C10.9915 3.01142 10.9987 2.87903 11.0313 2.75182C11.0639 2.62461 11.1212 2.50506 11.2 2.4C11.2788 2.29494 11.3775 2.20643 11.4905 2.13953C11.6035 2.07262 11.7286 2.02862 11.8586 2.01005C11.9886 1.99148 12.121 1.99869 12.2482 2.03129C12.3754 2.06388 12.4949 2.12121 12.6 2.2L16.6 5.2C16.7679 5.32593 16.8919 5.5015 16.9545 5.70183C17.0171 5.90217 17.0151 6.11712 16.9487 6.31623C16.8823 6.51534 16.755 6.68852 16.5847 6.81124C16.4144 6.93396 16.2099 7 16 7ZM23 17H9C8.73478 17 8.48043 16.8946 8.29289 16.7071C8.10536 16.5196 8 16.2652 8 16C8 15.7348 8.10536 15.4804 8.29289 15.2929C8.48043 15.1054 8.73478 15 9 15H23C23.2652 15 23.5196 15.1054 23.7071 15.2929C23.8946 15.4804 24 15.7348 24 16C24 16.2652 23.8946 16.5196 23.7071 16.7071C23.5196 16.8946 23.2652 17 23 17Z" fill="#1AA7EC"/>
<path d="M16 24C15.7348 24 15.4804 23.8946 15.2929 23.7071C15.1054 23.5196 15 23.2652 15 23V9C15 8.73478 15.1054 8.48043 15.2929 8.29289C15.4804 8.10536 15.7348 8 16 8C16.2652 8 16.5196 8.10536 16.7071 8.29289C16.8946 8.48043 17 8.73478 17 9V23C17 23.2652 16.8946 23.5196 16.7071 23.7071C16.5196 23.8946 16.2652 24 16 24Z" fill="#1AA7EC"/>
<path d="M16 14C15.8684 14.0008 15.7379 13.9755 15.6161 13.9258C15.4943 13.876 15.3834 13.8027 15.29 13.71L12.29 10.71C12.1262 10.5187 12.0406 10.2726 12.0503 10.0209C12.06 9.76927 12.1643 9.53053 12.3424 9.35243C12.5205 9.17434 12.7593 9.07001 13.0109 9.06029C13.2626 9.05056 13.5087 9.13617 13.7 9.3L16 11.59L18.29 9.3C18.4813 9.13617 18.7274 9.05056 18.9791 9.06029C19.2307 9.07001 19.4695 9.17434 19.6476 9.35243C19.8257 9.53053 19.93 9.76927 19.9397 10.0209C19.9494 10.2726 19.8638 10.5187 19.7 10.71L16.7 13.71C16.5137 13.8947 16.2623 13.9989 16 14ZM19 23C18.8684 23.0008 18.7379 22.9755 18.6161 22.9258C18.4943 22.876 18.3834 22.8027 18.29 22.71L16 20.41L13.71 22.7C13.5187 22.8638 13.2726 22.9494 13.0209 22.9397C12.7693 22.93 12.5305 22.8257 12.3524 22.6476C12.1743 22.4695 12.07 22.2307 12.0603 21.9791C12.0506 21.7274 12.1362 21.4813 12.3 21.29L15.3 18.29C15.4874 18.1037 15.7408 17.9992 16.005 17.9992C16.2692 17.9992 16.5226 18.1037 16.71 18.29L19.71 21.29C19.851 21.4299 19.9472 21.6086 19.9863 21.8033C20.0254 21.9981 20.0055 22.2 19.9294 22.3835C19.8532 22.5669 19.7241 22.7235 19.5586 22.8333C19.3931 22.9431 19.1986 23.0012 19 23ZM10 20C9.80138 20.0012 9.60691 19.9431 9.44139 19.8333C9.27587 19.7235 9.1468 19.5669 9.07063 19.3835C8.99446 19.2 8.97465 18.9981 9.01372 18.8033C9.05279 18.6086 9.14897 18.4299 9.29 18.29L11.59 16L9.29 13.71C9.12617 13.5187 9.04057 13.2726 9.05029 13.0209C9.06001 12.7693 9.16434 12.5305 9.34244 12.3524C9.52053 12.1743 9.75927 12.07 10.0109 12.0603C10.2626 12.0506 10.5087 12.1362 10.7 12.3L13.7 15.3C13.8863 15.4874 13.9908 15.7408 13.9908 16.005C13.9908 16.2692 13.8863 16.5226 13.7 16.71L10.7 19.71C10.5137 19.8947 10.2623 19.9989 10 20ZM22 20C21.8684 20.0008 21.7379 19.9755 21.6161 19.9258C21.4943 19.876 21.3834 19.8027 21.29 19.71L18.29 16.71C18.1037 16.5226 17.9992 16.2692 17.9992 16.005C17.9992 15.7408 18.1037 15.4874 18.29 15.3L21.29 12.3C21.4813 12.1362 21.7274 12.0506 21.9791 12.0603C22.2307 12.07 22.4695 12.1743 22.6476 12.3524C22.8257 12.5305 22.93 12.7693 22.9397 13.0209C22.9494 13.2726 22.8638 13.5187 22.7 13.71L20.41 16L22.7 18.29C22.8404 18.4293 22.9364 18.6071 22.9758 18.8009C23.0152 18.9947 22.9962 19.1958 22.9213 19.3788C22.8463 19.5619 22.7188 19.7186 22.5548 19.8292C22.3909 19.9397 22.1978 19.9992 22 20Z" fill="#1AA7EC"/>
</svg>
