<svg width="42" height="42" viewBox="0 0 42 42" fill="none" xmlns="http://www.w3.org/2000/svg">
<g clip-path="url(#clip0_11_50)">
<path d="M33.124 0H8.876C3.97392 0 0 3.9739 0 8.87598V33.124C0 38.026 3.97392 42.0001 8.876 42.0001H33.124C38.0261 42.0001 42 38.026 42 33.124V8.87598C42 3.9739 38.0261 0 33.124 0Z" fill="#1AA7EC"/>
<path fill-rule="evenodd" clip-rule="evenodd" d="M10.492 13.002C10.4263 13.0031 10.3615 13.017 10.3013 13.0431C10.241 13.0692 10.1865 13.1069 10.1408 13.1541C10.0951 13.2013 10.0591 13.257 10.035 13.3181C10.0108 13.3791 9.99894 13.4443 10 13.51V17.5099C10 17.6426 10.0527 17.7698 10.1465 17.8636C10.2402 17.9574 10.3674 18.0099 10.5 18.0099C10.6326 18.0099 10.7598 17.9574 10.8536 17.8636C10.9473 17.7698 11 17.6426 11 17.5099V16.717L12.147 17.864C12.1931 17.9117 12.2483 17.9498 12.3093 17.976C12.3703 18.0022 12.4359 18.0161 12.5023 18.0167C12.5687 18.0172 12.6345 18.0046 12.696 17.9794C12.7574 17.9543 12.8133 17.9171 12.8602 17.8702C12.9071 17.8232 12.9443 17.7674 12.9694 17.706C12.9946 17.6445 13.0072 17.5787 13.0066 17.5123C13.0061 17.4459 12.9923 17.3803 12.9661 17.3193C12.9399 17.2583 12.9018 17.2032 12.854 17.157L11.688 15.991C12.0487 15.9448 12.3805 15.7694 12.6217 15.4973C12.863 15.2251 12.9974 14.8747 13 14.511C13 13.688 12.322 13.011 11.5 13.011H10.592C10.5591 13.0043 10.5256 13.0009 10.492 13.001V13.002ZM17.488 13.012C17.4658 13.0139 17.4438 13.0172 17.422 13.022C17.412 13.0217 17.402 13.0217 17.392 13.022C17.391 13.022 17.39 13.022 17.389 13.022C17.3745 13.0253 17.3602 13.0294 17.346 13.034C17.3447 13.034 17.3433 13.034 17.342 13.034C17.3114 13.0445 17.282 13.0578 17.254 13.074C17.2466 13.0781 17.2392 13.0825 17.232 13.087C17.2249 13.0915 17.2179 13.0962 17.211 13.101C17.2103 13.101 17.2097 13.101 17.209 13.101C17.1955 13.1107 17.1825 13.121 17.17 13.132C17.1607 13.14 17.1517 13.1483 17.143 13.157C17.141 13.1603 17.139 13.1636 17.137 13.167L16.143 14.15C16.0932 14.1954 16.0531 14.2504 16.0251 14.3117C15.9971 14.373 15.9818 14.4393 15.9801 14.5067C15.9783 14.574 15.9903 14.6411 16.0151 14.7038C16.0399 14.7664 16.0772 14.8234 16.1246 14.8713C16.172 14.9192 16.2286 14.9569 16.291 14.9824C16.3534 15.0078 16.4203 15.0204 16.4877 15.0193C16.5551 15.0183 16.6216 15.0037 16.6831 14.9763C16.7447 14.9489 16.8001 14.9094 16.846 14.86L17 14.7079V17.502C17 17.6346 17.0527 17.7618 17.1465 17.8555C17.2402 17.9493 17.3674 18.002 17.5 18.002C17.6326 18.002 17.7598 17.9493 17.8536 17.8555C17.9473 17.7618 18 17.6346 18 17.502V13.518C18.0001 13.5023 17.9994 13.4866 17.998 13.471C17.9974 13.467 17.9967 13.463 17.996 13.459C17.9945 13.4466 17.9925 13.4343 17.99 13.422C17.9874 13.4069 17.984 13.3919 17.98 13.377C17.9793 13.377 17.9787 13.377 17.978 13.377C17.9767 13.373 17.9754 13.369 17.974 13.365C17.9707 13.3549 17.967 13.3449 17.963 13.335C17.9572 13.3187 17.9505 13.3026 17.943 13.287C17.9423 13.287 17.9417 13.287 17.941 13.287C17.934 13.2733 17.9263 13.26 17.918 13.247C17.9173 13.247 17.9167 13.247 17.916 13.247C17.9134 13.2436 17.9107 13.2403 17.908 13.237C17.9008 13.226 17.8931 13.2154 17.885 13.205C17.854 13.1672 17.8176 13.1342 17.777 13.107C17.7757 13.107 17.7743 13.107 17.773 13.107C17.7604 13.0987 17.7473 13.0911 17.734 13.084C17.7327 13.084 17.7313 13.084 17.73 13.084C17.7293 13.084 17.7287 13.084 17.728 13.084C17.714 13.077 17.6996 13.0707 17.685 13.065C17.6774 13.0615 17.6698 13.0581 17.662 13.055C17.6548 13.0515 17.6474 13.0481 17.64 13.045C17.6393 13.045 17.6387 13.045 17.638 13.045C17.6232 13.041 17.6081 13.0376 17.593 13.035C17.592 13.035 17.591 13.035 17.59 13.035C17.5745 13.0309 17.5588 13.0276 17.543 13.025C17.5417 13.025 17.5403 13.025 17.539 13.025C17.5233 13.0243 17.5077 13.0243 17.492 13.025C17.4913 13.025 17.4907 13.025 17.49 13.025C17.4893 13.025 17.4887 13.025 17.488 13.025V13.012ZM28.816 13.012C28.6975 13.0124 28.583 13.0548 28.4929 13.1317C28.4028 13.2086 28.343 13.3151 28.324 13.432L27.998 15.436C27.9797 15.5485 28.0003 15.6638 28.0566 15.763C28.1128 15.8622 28.2013 15.9391 28.3072 15.9811C28.4132 16.0232 28.5303 16.0278 28.6392 15.9941C28.7481 15.9604 28.8423 15.8905 28.906 15.796C29.0432 15.69 29.2161 15.6414 29.3884 15.6602C29.5607 15.6791 29.719 15.764 29.83 15.897C29.9446 16.0287 30.0035 16.1998 29.9942 16.3741C29.9848 16.5484 29.908 16.7123 29.78 16.831C29.6541 16.9522 29.4857 17.019 29.311 17.0172C29.1362 17.0153 28.9693 16.9448 28.846 16.821C28.7994 16.7725 28.7435 16.734 28.6817 16.7076C28.6198 16.6812 28.5533 16.6676 28.486 16.6675C28.4188 16.6675 28.3523 16.681 28.2903 16.7072C28.2284 16.7335 28.1725 16.7719 28.1258 16.8203C28.0791 16.8686 28.0426 16.9259 28.0186 16.9887C27.9945 17.0515 27.9834 17.1185 27.9859 17.1857C27.9883 17.2529 28.0043 17.3189 28.0328 17.3798C28.0614 17.4407 28.1019 17.4951 28.152 17.54C28.792 18.157 29.817 18.164 30.465 17.555C31.112 16.945 31.167 15.9221 30.59 15.2451C30.3106 14.9182 29.9158 14.7118 29.488 14.669C29.3706 14.658 29.2524 14.658 29.135 14.669L29.242 14.007H30.492C30.6246 14.007 30.7518 13.9543 30.8456 13.8605C30.9393 13.7668 30.992 13.6396 30.992 13.507C30.992 13.3744 30.9393 13.2472 30.8456 13.1534C30.7518 13.0597 30.6246 13.007 30.492 13.007H28.816V13.012ZM23.354 13.022C22.9828 13.0584 22.6384 13.2315 22.3877 13.5076C22.1369 13.7836 21.9977 14.1431 21.997 14.5161C21.997 14.6487 22.0497 14.7758 22.1434 14.8696C22.2372 14.9633 22.3644 15.0161 22.497 15.0161C22.6296 15.0161 22.7568 14.9633 22.8506 14.8696C22.9443 14.7758 22.997 14.6487 22.997 14.5161C22.9963 14.4169 23.0251 14.3198 23.0799 14.2371C23.1347 14.1545 23.2129 14.09 23.3046 14.0521C23.3962 14.0141 23.4971 14.0045 23.5942 14.0242C23.6914 14.044 23.7805 14.0923 23.85 14.163C23.9201 14.2329 23.9677 14.322 23.9867 14.4191C24.0058 14.5162 23.9954 14.6168 23.957 14.7079C23.9198 14.7994 23.8561 14.8776 23.7742 14.9327C23.6922 14.9877 23.5957 15.0171 23.497 15.017C23.4512 15.0161 23.4054 15.0215 23.361 15.033C23.3567 15.033 23.3523 15.033 23.348 15.033C23.3369 15.0366 23.3259 15.0406 23.315 15.045C23.2883 15.0551 23.2626 15.0675 23.238 15.082C23.2309 15.0858 23.2239 15.0899 23.217 15.0941C23.2157 15.0941 23.2143 15.0941 23.213 15.0941C23.2028 15.1004 23.1928 15.1069 23.183 15.114C23.1727 15.1222 23.1627 15.1309 23.153 15.14C23.1489 15.1439 23.1449 15.148 23.141 15.152C23.1355 15.1576 23.1302 15.1632 23.125 15.169C23.1181 15.1761 23.1115 15.1834 23.105 15.191C23.1016 15.1949 23.0983 15.1989 23.095 15.2029C23.0884 15.2117 23.082 15.2208 23.076 15.23C23.0708 15.2376 23.0658 15.2452 23.061 15.253C23.0583 15.2576 23.0556 15.2623 23.053 15.267C23.0481 15.2752 23.0434 15.2836 23.039 15.2921C23.0355 15.2986 23.0322 15.3052 23.029 15.312C23.0265 15.3196 23.0242 15.3273 23.022 15.335C23.0192 15.3416 23.0165 15.3483 23.014 15.355C23.0126 15.36 23.0113 15.365 23.01 15.3701C23.0013 15.3991 22.9953 15.4289 22.992 15.459C22.9911 15.4687 22.9904 15.4783 22.99 15.488C22.9892 15.4956 22.9885 15.5034 22.988 15.511C22.9885 15.5181 22.9892 15.5251 22.99 15.532C22.9904 15.5421 22.991 15.552 22.992 15.562C22.992 15.5653 22.992 15.5686 22.992 15.572C22.9936 15.5834 22.9956 15.5948 22.998 15.606C23.0012 15.6219 23.0052 15.6376 23.01 15.653C23.0131 15.6621 23.0164 15.6711 23.02 15.68C23.0231 15.6888 23.0264 15.6974 23.03 15.706C23.0332 15.7134 23.0365 15.7207 23.04 15.728C23.0441 15.7364 23.0484 15.7448 23.053 15.753C23.0556 15.7577 23.0583 15.7624 23.061 15.767C23.0658 15.7755 23.0708 15.7839 23.076 15.7921C23.0793 15.7961 23.0826 15.8001 23.086 15.804C23.1025 15.8269 23.1209 15.8482 23.141 15.868C23.1449 15.872 23.1489 15.876 23.153 15.8799C23.173 15.898 23.1944 15.9144 23.217 15.929C23.2239 15.9332 23.2309 15.9371 23.238 15.941C23.2439 15.9448 23.2499 15.9484 23.256 15.952C23.2606 15.9554 23.2653 15.9587 23.27 15.962C23.2814 15.9684 23.2931 15.9745 23.305 15.98C23.3165 15.9845 23.3282 15.9884 23.34 15.992C23.3467 15.9921 23.3533 15.9921 23.36 15.992C23.361 15.992 23.362 15.992 23.363 15.992C23.4064 16.0036 23.4511 16.0093 23.496 16.009C23.7 16.009 23.879 16.13 23.957 16.319C24.035 16.506 23.994 16.719 23.85 16.863C23.7805 16.9341 23.6912 16.9828 23.5938 17.0027C23.4963 17.0227 23.3952 17.0129 23.3033 16.9748C23.2114 16.9367 23.133 16.872 23.0783 16.789C23.0235 16.706 22.9948 16.6084 22.996 16.509C22.996 16.3764 22.9433 16.2492 22.8496 16.1555C22.7558 16.0617 22.6286 16.009 22.496 16.009C22.3634 16.009 22.2362 16.0617 22.1425 16.1555C22.0487 16.2492 21.996 16.3764 21.996 16.509C21.996 17.115 22.363 17.6651 22.922 17.8961C23.482 18.1281 24.129 17.998 24.557 17.57C24.7663 17.3599 24.9088 17.0925 24.9664 16.8016C25.0241 16.5106 24.9943 16.2091 24.881 15.935C24.8129 15.7782 24.7182 15.6344 24.601 15.5099C24.716 15.3839 24.814 15.246 24.881 15.084C24.9794 14.845 25.0146 14.5845 24.9829 14.3279C24.9513 14.0713 24.8541 13.8272 24.7005 13.6192C24.547 13.4112 24.3424 13.2463 24.1065 13.1404C23.8707 13.0346 23.6115 12.9914 23.354 13.015V13.022ZM11 14.0099H11.5C11.786 14.0099 12 14.2249 12 14.5099C12 14.7959 11.786 15.0099 11.5 15.0099H11V14.0099ZM29.486 19.002C29.4203 19.0031 29.3555 19.0171 29.2953 19.0432C29.235 19.0692 29.1805 19.1069 29.1348 19.1541C29.0891 19.2013 29.0531 19.257 29.029 19.3181C29.0048 19.3791 28.9929 19.4443 28.994 19.5099V22.0099H23.994V19.5099C23.9948 19.4433 23.9823 19.3771 23.9571 19.3154C23.932 19.2536 23.8947 19.1976 23.8476 19.1505C23.8004 19.1033 23.7443 19.066 23.6826 19.0408C23.6208 19.0157 23.5547 19.0032 23.488 19.004C23.4223 19.0048 23.3575 19.0185 23.2971 19.0444C23.2367 19.0702 23.1821 19.1077 23.1362 19.1547C23.0903 19.2017 23.0542 19.2572 23.0298 19.3182C23.0054 19.3791 22.9932 19.4443 22.994 19.5099V22.0099H17.994V19.5099C17.9948 19.4433 17.9823 19.3771 17.9571 19.3154C17.932 19.2536 17.8947 19.1976 17.8476 19.1505C17.8004 19.1033 17.7443 19.066 17.6826 19.0408C17.6208 19.0157 17.5547 19.0032 17.488 19.004C17.4223 19.0048 17.3575 19.0185 17.2971 19.0444C17.2367 19.0702 17.1821 19.1077 17.1362 19.1547C17.0903 19.2017 17.0542 19.2572 17.0298 19.3182C17.0054 19.3791 16.9932 19.4443 16.994 19.5099V22.0099H12V19.5099C12.0008 19.4431 11.9882 19.3769 11.9629 19.315C11.9377 19.2531 11.9003 19.1969 11.8529 19.1497C11.8055 19.1025 11.7492 19.0654 11.6872 19.0403C11.6252 19.0153 11.5588 19.0029 11.492 19.004C11.3597 19.0061 11.2337 19.0605 11.1415 19.1553C11.0493 19.2502 10.9984 19.3777 11 19.5099V22.5099C11 22.6426 11.0527 22.7698 11.1465 22.8636C11.2402 22.9574 11.3674 23.0099 11.5 23.0099H16.994V25.5099C16.994 25.6426 17.0467 25.7698 17.1404 25.8636C17.2342 25.9574 17.3614 26.0099 17.494 26.0099C17.6266 26.0099 17.7538 25.9574 17.8476 25.8636C17.9413 25.7698 17.994 25.6426 17.994 25.5099V23.0099H22.994V25.5099C22.994 25.6426 23.0467 25.7698 23.1404 25.8636C23.2342 25.9574 23.3614 26.0099 23.494 26.0099C23.6266 26.0099 23.7538 25.9574 23.8476 25.8636C23.9413 25.7698 23.994 25.6426 23.994 25.5099V23.0099H29.494C29.6266 23.0099 29.7538 22.9574 29.8476 22.8636C29.9413 22.7698 29.994 22.6426 29.994 22.5099V19.5099C29.9951 19.4429 29.9827 19.3764 29.9575 19.3143C29.9324 19.2521 29.895 19.1958 29.8476 19.1484C29.8002 19.101 29.7438 19.0637 29.6817 19.0385C29.6196 19.0134 29.553 19.0009 29.486 19.002ZM23.35 26.997C23.2432 27.0002 23.1402 27.0376 23.0561 27.1037C22.9721 27.1697 22.9114 27.2609 22.883 27.364L22.008 30.364C21.9866 30.4383 21.9828 30.5167 21.9969 30.5928C22.011 30.6689 22.0425 30.7407 22.089 30.8026C22.1356 30.8644 22.1958 30.9147 22.2651 30.9493C22.3343 30.9839 22.4106 31.0019 22.488 31.002H23.988V31.502C23.988 31.6346 24.0407 31.7618 24.1345 31.8555C24.2282 31.9493 24.3554 32.002 24.488 32.002C24.6206 32.002 24.7478 31.9493 24.8416 31.8555C24.9353 31.7618 24.988 31.6346 24.988 31.502V30.612C25.0048 30.5386 25.0048 30.4624 24.988 30.389V28.584C24.988 28.4514 24.9353 28.3242 24.8416 28.2304C24.7478 28.1366 24.6206 28.084 24.488 28.084C24.3554 28.084 24.2282 28.1366 24.1345 28.2304C24.0407 28.3242 23.988 28.4514 23.988 28.584V30.002H23.156L23.844 27.643C23.8673 27.567 23.8721 27.4865 23.858 27.4083C23.8439 27.33 23.8114 27.2562 23.7631 27.1931C23.7147 27.1299 23.6521 27.0791 23.5802 27.045C23.5084 27.0109 23.4295 26.9945 23.35 26.997ZM17.48 27.011C16.658 27.011 15.98 27.688 15.98 28.511C15.98 28.6437 16.0327 28.7708 16.1264 28.8646C16.2202 28.9583 16.3474 29.011 16.48 29.011C16.6126 29.011 16.7398 28.9583 16.8336 28.8646C16.9273 28.7708 16.98 28.6437 16.98 28.511C16.98 28.224 17.195 28.011 17.48 28.011C17.766 28.011 17.98 28.224 17.98 28.511C17.98 28.775 17.91 28.924 17.777 29.091C17.645 29.257 17.433 29.425 17.184 29.612C16.934 29.8 16.649 30.007 16.408 30.309C16.168 30.612 15.988 31.025 15.988 31.511C15.988 31.6437 16.0407 31.7708 16.1345 31.8646C16.2282 31.9583 16.3554 32.011 16.488 32.011H18.488C18.6206 32.011 18.7478 31.9583 18.8416 31.8646C18.9353 31.7708 18.988 31.6437 18.988 31.511C18.988 31.3784 18.9353 31.2512 18.8416 31.1574C18.7478 31.0636 18.6206 31.011 18.488 31.011H17.162C17.178 30.989 17.172 30.955 17.19 30.933C17.322 30.766 17.536 30.5989 17.785 30.4109C18.035 30.2239 18.32 30.0161 18.561 29.7141C18.801 29.4121 18.981 28.996 18.981 28.511C18.981 27.688 18.303 27.011 17.481 27.011H17.48Z" fill="white"/>
</g>
<defs>
<clipPath id="clip0_11_50">
<rect width="42" height="42" fill="white"/>
</clipPath>
</defs>
</svg>
