<svg id="visual" viewBox="0 0 360 583" width="360" height="583" xmlns="http://www.w3.org/2000/svg" xmlns:xlink="http://www.w3.org/1999/xlink" version="1.1"><rect x="0" y="0" width="360" height="583" fill="#001220"></rect><path d="M0 212L10 213.3C20 214.7 40 217.3 60 225.5C80 233.7 100 247.3 120 242C140 236.7 160 212.3 180 210.3C200 208.3 220 228.7 240 239.2C260 249.7 280 250.3 300 238.2C320 226 340 201 350 188.5L360 176L360 584L350 584C340 584 320 584 300 584C280 584 260 584 240 584C220 584 200 584 180 584C160 584 140 584 120 584C100 584 80 584 60 584C40 584 20 584 10 584L0 584Z" fill="#77c3f0"></path><path d="M0 306L10 292.8C20 279.7 40 253.3 60 238C80 222.7 100 218.3 120 226.5C140 234.7 160 255.3 180 256.7C200 258 220 240 240 246.3C260 252.7 280 283.3 300 299.7C320 316 340 318 350 319L360 320L360 584L350 584C340 584 320 584 300 584C280 584 260 584 240 584C220 584 200 584 180 584C160 584 140 584 120 584C100 584 80 584 60 584C40 584 20 584 10 584L0 584Z" fill="#53b5ee"></path><path d="M0 391L10 390.8C20 390.7 40 390.3 60 383C80 375.7 100 361.3 120 359.5C140 357.7 160 368.3 180 371.7C200 375 220 371 240 371.3C260 371.7 280 376.3 300 378C320 379.7 340 378.3 350 377.7L360 377L360 584L350 584C340 584 320 584 300 584C280 584 260 584 240 584C220 584 200 584 180 584C160 584 140 584 120 584C100 584 80 584 60 584C40 584 20 584 10 584L0 584Z" fill="#1aa7ec"></path><path d="M0 469L10 459.8C20 450.7 40 432.3 60 417C80 401.7 100 389.3 120 383.8C140 378.3 160 379.7 180 393.5C200 407.3 220 433.7 240 438.8C260 444 280 428 300 417.3C320 406.7 340 401.3 350 398.7L360 396L360 584L350 584C340 584 320 584 300 584C280 584 260 584 240 584C220 584 200 584 180 584C160 584 140 584 120 584C100 584 80 584 60 584C40 584 20 584 10 584L0 584Z" fill="#1291cc"></path><path d="M0 506L10 497.7C20 489.3 40 472.7 60 469.5C80 466.3 100 476.7 120 480.3C140 484 160 481 180 488.8C200 496.7 220 515.3 240 517.5C260 519.7 280 505.3 300 501.5C320 497.7 340 504.3 350 507.7L360 511L360 584L350 584C340 584 320 584 300 584C280 584 260 584 240 584C220 584 200 584 180 584C160 584 140 584 120 584C100 584 80 584 60 584C40 584 20 584 10 584L0 584Z" fill="#0d7bad"></path></svg>