<svg width="64" height="64" viewBox="0 0 64 64" fill="none" xmlns="http://www.w3.org/2000/svg">
<path d="M52 21C52 22.0609 51.5786 23.0783 50.8284 23.8284C50.0783 24.5786 49.0609 25 48 25C46.9391 25 45.9217 24.5786 45.1716 23.8284C44.4214 23.0783 44 22.0609 44 21C44 18.79 48 13 48 13C48 13 52 18.79 52 21Z" fill="#1AA7EC"/>
<path d="M49 7H31C30.4701 7.00158 29.9623 7.2128 29.5875 7.58753C29.2128 7.96227 29.0016 8.47005 29 9V17H25V6C25 5.20435 25.3161 4.44129 25.8787 3.87868C26.4413 3.31607 27.2044 3 28 3H45L49 7Z" fill="#1AA7EC"/>
<path d="M35 17H19V25H35V17Z" fill="#1AA7EC"/>
<path d="M42 33H12L19 25H35L42 33Z" fill="#1AA7EC"/>
<path d="M42 33V59C41.9984 59.5299 41.7872 60.0377 41.4125 60.4125C41.0377 60.7872 40.5299 60.9984 40 61H14C13.4701 60.9984 12.9623 60.7872 12.5875 60.4125C12.2128 60.0377 12.0016 59.5299 12 59V33H42Z" fill="#1AA7EC"/>
<path d="M47 23C47.5523 23 48 22.3284 48 21.5C48 20.6716 47.5523 20 47 20C46.4477 20 46 20.6716 46 21.5C46 22.3284 46.4477 23 47 23Z" fill="#1AA7EC"/>
<path d="M49.71 6.29L45.71 2.29C45.5193 2.1058 45.2651 2.00197 45 2H28C26.9391 2 25.9217 2.42143 25.1716 3.17157C24.4214 3.92172 24 4.93913 24 6V16H19C18.7348 16 18.4804 16.1054 18.2929 16.2929C18.1054 16.4804 18 16.7348 18 17V24.62L11.25 32.34C11.0892 32.5223 11.0003 32.7569 11 33V59C11.0024 59.7949 11.3192 60.5566 11.8813 61.1187C12.4434 61.6808 13.2051 61.9976 14 62H40C40.7949 61.9976 41.5566 61.6808 42.1187 61.1187C42.6808 60.5566 42.9976 59.7949 43 59V33C42.9997 32.7569 42.9108 32.5223 42.75 32.34L36 24.62V17C36 16.7348 35.8946 16.4804 35.7071 16.2929C35.5196 16.1054 35.2652 16 35 16H30V9C30 8.73478 30.1054 8.48043 30.2929 8.29289C30.4804 8.10536 30.7348 8 31 8H49C49.1978 8.00075 49.3913 7.94205 49.5554 7.83149C49.7194 7.72094 49.8464 7.56364 49.92 7.38C49.9966 7.19789 50.0175 6.99718 49.9801 6.80319C49.9428 6.6092 49.8488 6.43062 49.71 6.29ZM41 59C41 59.2652 40.8946 59.5196 40.7071 59.7071C40.5196 59.8946 40.2652 60 40 60H14C13.7348 60 13.4804 59.8946 13.2929 59.7071C13.1054 59.5196 13 59.2652 13 59V34H41V59ZM39.8 32H14.2L19.45 26H34.55L39.8 32ZM34 18V24H20V18H34ZM31 6C30.2051 6.00237 29.4434 6.31921 28.8813 6.8813C28.3192 7.4434 28.0024 8.20508 28 9V16H26V6C26.0016 5.47005 26.2128 4.96227 26.5875 4.58753C26.9623 4.2128 27.4701 4.00158 28 4H44.59L46.59 6H31Z" fill="#1AA7EC"/>
<path d="M36 52.012L33.004 52L32.996 54L36 54.012V58H38V36H36V40.012L33.004 40L32.996 42L36 42.012V46H30V48H36V52.012Z" fill="#1AA7EC"/>
<path d="M48.823 12.432C48.7261 12.3059 48.6014 12.2037 48.4587 12.1334C48.316 12.0631 48.1591 12.0266 48 12.0266C47.8409 12.0266 47.684 12.0631 47.5413 12.1334C47.3986 12.2037 47.2739 12.3059 47.177 12.432C46.479 13.441 43 18.6 43 21C43 22.3261 43.5268 23.5979 44.4645 24.5355C45.4021 25.4732 46.6739 26 48 26C49.3261 26 50.5979 25.4732 51.5355 24.5355C52.4732 23.5979 53 22.3261 53 21C53 18.6 49.521 13.441 48.823 12.432ZM48 24C47.2044 24 46.4413 23.6839 45.8787 23.1213C45.3161 22.5587 45 21.7957 45 21C45 19.908 46.561 17.057 48 14.808C49.439 17.057 51 19.908 51 21C51 21.7957 50.6839 22.5587 50.1213 23.1213C49.5587 23.6839 48.7956 24 48 24Z" fill="#1AA7EC"/>
</svg>
