<svg width="48" height="48" viewBox="0 0 48 48" fill="none" xmlns="http://www.w3.org/2000/svg">
<g clip-path="url(#clip0_17_2)">
<path d="M24 48.0001C37.2548 48.0001 48 37.2549 48 24.0001C48 10.7452 37.2548 0 24 0C10.7452 0 0 10.7452 0 24.0001C0 37.2549 10.7452 48.0001 24 48.0001Z" fill="#1AA7EC"/>
<path fill-rule="evenodd" clip-rule="evenodd" d="M14 34.9839V30.2971C14 26.2551 17.122 23.0001 21 23.0001H27C30.879 23.0001 34 26.2551 34 30.2971V34.9839H14Z" fill="white"/>
<path d="M23.981 21.44C26.7314 21.44 28.961 19.2014 28.961 16.44C28.961 13.6786 26.7314 11.44 23.981 11.44C21.2306 11.44 19.001 13.6786 19.001 16.44C19.001 19.2014 21.2306 21.44 23.981 21.44Z" fill="white"/>
<path d="M18 30.462V35.0001ZM30 30.462V35.0001Z" fill="white"/>
<path d="M18 30.462V35.0001M30 30.462V35.0001" stroke="#0C5286" stroke-linejoin="round"/>
</g>
<defs>
<clipPath id="clip0_17_2">
<rect width="48" height="48" fill="white"/>
</clipPath>
</defs>
</svg>
